<mxfile host="Electron" modified="2023-10-18T12:50:50.853Z" agent="Mozilla/5.0 (Windows NT 10.0; Win64; x64) AppleWebKit/537.36 (KHTML, like Gecko) draw.io/22.0.2 Chrome/114.0.5735.289 Electron/25.8.4 Safari/537.36" etag="5HNYFmRxO9cPXniDKFEj" version="22.0.2" type="device">
  <diagram name="第 1 页" id="F_5WipXOPg5ZJhtLmUmL">
    <mxGraphModel dx="478" dy="281" grid="1" gridSize="10" guides="1" tooltips="1" connect="1" arrows="1" fold="1" page="1" pageScale="1" pageWidth="827" pageHeight="1169" math="0" shadow="0">
      <root>
        <mxCell id="0" />
        <mxCell id="1" parent="0" />
        <mxCell id="cj4dVTk8w0KV40-LwNAP-8" style="rounded=0;orthogonalLoop=1;jettySize=auto;html=1;entryX=0;entryY=0.5;entryDx=0;entryDy=0;exitX=1;exitY=0;exitDx=0;exitDy=0;" edge="1" parent="1" source="cj4dVTk8w0KV40-LwNAP-1" target="cj4dVTk8w0KV40-LwNAP-2">
          <mxGeometry relative="1" as="geometry" />
        </mxCell>
        <mxCell id="cj4dVTk8w0KV40-LwNAP-9" style="edgeStyle=orthogonalEdgeStyle;rounded=0;orthogonalLoop=1;jettySize=auto;html=1;entryX=0;entryY=0.5;entryDx=0;entryDy=0;" edge="1" parent="1" source="cj4dVTk8w0KV40-LwNAP-1" target="cj4dVTk8w0KV40-LwNAP-3">
          <mxGeometry relative="1" as="geometry" />
        </mxCell>
        <mxCell id="cj4dVTk8w0KV40-LwNAP-11" style="rounded=0;orthogonalLoop=1;jettySize=auto;html=1;entryX=0;entryY=0.5;entryDx=0;entryDy=0;exitX=1;exitY=1;exitDx=0;exitDy=0;" edge="1" parent="1" source="cj4dVTk8w0KV40-LwNAP-1" target="cj4dVTk8w0KV40-LwNAP-4">
          <mxGeometry relative="1" as="geometry" />
        </mxCell>
        <mxCell id="cj4dVTk8w0KV40-LwNAP-1" value="null" style="rounded=0;whiteSpace=wrap;html=1;" vertex="1" parent="1">
          <mxGeometry x="200" y="360" width="80" height="40" as="geometry" />
        </mxCell>
        <mxCell id="cj4dVTk8w0KV40-LwNAP-15" style="rounded=0;orthogonalLoop=1;jettySize=auto;html=1;entryX=0;entryY=0.5;entryDx=0;entryDy=0;" edge="1" parent="1" source="cj4dVTk8w0KV40-LwNAP-2" target="cj4dVTk8w0KV40-LwNAP-6">
          <mxGeometry relative="1" as="geometry" />
        </mxCell>
        <mxCell id="cj4dVTk8w0KV40-LwNAP-24" style="edgeStyle=orthogonalEdgeStyle;rounded=0;orthogonalLoop=1;jettySize=auto;html=1;entryX=0.25;entryY=0;entryDx=0;entryDy=0;" edge="1" parent="1" source="cj4dVTk8w0KV40-LwNAP-2" target="cj4dVTk8w0KV40-LwNAP-4">
          <mxGeometry relative="1" as="geometry">
            <Array as="points">
              <mxPoint x="380" y="350" />
              <mxPoint x="380" y="350" />
            </Array>
          </mxGeometry>
        </mxCell>
        <mxCell id="cj4dVTk8w0KV40-LwNAP-26" style="rounded=0;orthogonalLoop=1;jettySize=auto;html=1;entryX=1;entryY=0.25;entryDx=0;entryDy=0;exitX=0;exitY=0.75;exitDx=0;exitDy=0;" edge="1" parent="1" source="cj4dVTk8w0KV40-LwNAP-2" target="cj4dVTk8w0KV40-LwNAP-1">
          <mxGeometry relative="1" as="geometry" />
        </mxCell>
        <mxCell id="cj4dVTk8w0KV40-LwNAP-2" value="int" style="rounded=0;whiteSpace=wrap;html=1;" vertex="1" parent="1">
          <mxGeometry x="360" y="280" width="80" height="40" as="geometry" />
        </mxCell>
        <mxCell id="cj4dVTk8w0KV40-LwNAP-16" style="edgeStyle=orthogonalEdgeStyle;rounded=0;orthogonalLoop=1;jettySize=auto;html=1;entryX=0;entryY=0.5;entryDx=0;entryDy=0;" edge="1" parent="1" source="cj4dVTk8w0KV40-LwNAP-3" target="cj4dVTk8w0KV40-LwNAP-6">
          <mxGeometry relative="1" as="geometry" />
        </mxCell>
        <mxCell id="cj4dVTk8w0KV40-LwNAP-21" style="edgeStyle=orthogonalEdgeStyle;rounded=0;orthogonalLoop=1;jettySize=auto;html=1;entryX=0.5;entryY=0;entryDx=0;entryDy=0;" edge="1" parent="1" source="cj4dVTk8w0KV40-LwNAP-3" target="cj4dVTk8w0KV40-LwNAP-4">
          <mxGeometry relative="1" as="geometry" />
        </mxCell>
        <mxCell id="cj4dVTk8w0KV40-LwNAP-41" style="rounded=0;orthogonalLoop=1;jettySize=auto;html=1;entryX=0;entryY=0.5;entryDx=0;entryDy=0;" edge="1" parent="1" source="cj4dVTk8w0KV40-LwNAP-3" target="cj4dVTk8w0KV40-LwNAP-40">
          <mxGeometry relative="1" as="geometry" />
        </mxCell>
        <mxCell id="cj4dVTk8w0KV40-LwNAP-3" value="float" style="rounded=0;whiteSpace=wrap;html=1;" vertex="1" parent="1">
          <mxGeometry x="360" y="360" width="80" height="40" as="geometry" />
        </mxCell>
        <mxCell id="cj4dVTk8w0KV40-LwNAP-17" style="rounded=0;orthogonalLoop=1;jettySize=auto;html=1;entryX=0;entryY=0.5;entryDx=0;entryDy=0;" edge="1" parent="1" source="cj4dVTk8w0KV40-LwNAP-4" target="cj4dVTk8w0KV40-LwNAP-6">
          <mxGeometry relative="1" as="geometry" />
        </mxCell>
        <mxCell id="cj4dVTk8w0KV40-LwNAP-35" style="rounded=0;orthogonalLoop=1;jettySize=auto;html=1;entryX=1;entryY=0.75;entryDx=0;entryDy=0;exitX=0;exitY=0.25;exitDx=0;exitDy=0;" edge="1" parent="1" source="cj4dVTk8w0KV40-LwNAP-4" target="cj4dVTk8w0KV40-LwNAP-1">
          <mxGeometry relative="1" as="geometry" />
        </mxCell>
        <mxCell id="cj4dVTk8w0KV40-LwNAP-4" value="var" style="rounded=0;whiteSpace=wrap;html=1;" vertex="1" parent="1">
          <mxGeometry x="360" y="440" width="80" height="40" as="geometry" />
        </mxCell>
        <mxCell id="cj4dVTk8w0KV40-LwNAP-30" style="edgeStyle=orthogonalEdgeStyle;rounded=0;orthogonalLoop=1;jettySize=auto;html=1;entryX=0.5;entryY=1;entryDx=0;entryDy=0;" edge="1" parent="1" source="cj4dVTk8w0KV40-LwNAP-6" target="cj4dVTk8w0KV40-LwNAP-1">
          <mxGeometry relative="1" as="geometry">
            <Array as="points">
              <mxPoint x="560" y="500" />
              <mxPoint x="240" y="500" />
            </Array>
          </mxGeometry>
        </mxCell>
        <mxCell id="cj4dVTk8w0KV40-LwNAP-43" style="edgeStyle=orthogonalEdgeStyle;rounded=0;orthogonalLoop=1;jettySize=auto;html=1;" edge="1" parent="1" source="cj4dVTk8w0KV40-LwNAP-6">
          <mxGeometry relative="1" as="geometry">
            <mxPoint x="560" y="320" as="targetPoint" />
          </mxGeometry>
        </mxCell>
        <mxCell id="cj4dVTk8w0KV40-LwNAP-6" value="operator" style="rounded=0;whiteSpace=wrap;html=1;" vertex="1" parent="1">
          <mxGeometry x="520" y="360" width="80" height="40" as="geometry" />
        </mxCell>
        <mxCell id="cj4dVTk8w0KV40-LwNAP-12" value="num" style="text;html=1;align=center;verticalAlign=middle;resizable=0;points=[];autosize=1;strokeColor=none;fillColor=none;rotation=-36.1;fontSize=8;" vertex="1" parent="1">
          <mxGeometry x="289" y="319" width="40" height="20" as="geometry" />
        </mxCell>
        <mxCell id="cj4dVTk8w0KV40-LwNAP-13" value="num(.)" style="text;html=1;align=center;verticalAlign=middle;resizable=0;points=[];autosize=1;strokeColor=none;fillColor=none;fontSize=8;" vertex="1" parent="1">
          <mxGeometry x="306" y="362" width="50" height="20" as="geometry" />
        </mxCell>
        <mxCell id="cj4dVTk8w0KV40-LwNAP-14" value="var" style="text;html=1;align=center;verticalAlign=middle;resizable=0;points=[];autosize=1;strokeColor=none;fillColor=none;rotation=-145.5;fontSize=8;" vertex="1" parent="1">
          <mxGeometry x="296" y="420" width="30" height="20" as="geometry" />
        </mxCell>
        <mxCell id="cj4dVTk8w0KV40-LwNAP-18" value="op" style="text;html=1;align=center;verticalAlign=middle;resizable=0;points=[];autosize=1;strokeColor=none;fillColor=none;rotation=30;fontSize=8;" vertex="1" parent="1">
          <mxGeometry x="490" y="355" width="30" height="20" as="geometry" />
        </mxCell>
        <mxCell id="cj4dVTk8w0KV40-LwNAP-19" value="op" style="text;html=1;align=center;verticalAlign=middle;resizable=0;points=[];autosize=1;strokeColor=none;fillColor=none;fontSize=8;" vertex="1" parent="1">
          <mxGeometry x="480" y="364" width="30" height="20" as="geometry" />
        </mxCell>
        <mxCell id="cj4dVTk8w0KV40-LwNAP-20" value="op" style="text;html=1;align=center;verticalAlign=middle;resizable=0;points=[];autosize=1;strokeColor=none;fillColor=none;rotation=-30;fontSize=8;" vertex="1" parent="1">
          <mxGeometry x="478" y="380" width="30" height="20" as="geometry" />
        </mxCell>
        <mxCell id="cj4dVTk8w0KV40-LwNAP-22" value="var" style="text;html=1;align=center;verticalAlign=middle;resizable=0;points=[];autosize=1;strokeColor=none;fillColor=none;rotation=-90;fontSize=8;" vertex="1" parent="1">
          <mxGeometry x="395" y="415" width="30" height="20" as="geometry" />
        </mxCell>
        <mxCell id="cj4dVTk8w0KV40-LwNAP-25" value="var" style="text;html=1;align=center;verticalAlign=middle;resizable=0;points=[];autosize=1;strokeColor=none;fillColor=none;rotation=-90;fontSize=8;" vertex="1" parent="1">
          <mxGeometry x="355" y="415" width="30" height="20" as="geometry" />
        </mxCell>
        <mxCell id="cj4dVTk8w0KV40-LwNAP-27" value="bracket || func" style="text;html=1;align=center;verticalAlign=middle;resizable=0;points=[];autosize=1;strokeColor=none;fillColor=none;rotation=-217.5;fontSize=8;" vertex="1" parent="1">
          <mxGeometry x="296" y="335" width="70" height="20" as="geometry" />
        </mxCell>
        <mxCell id="cj4dVTk8w0KV40-LwNAP-28" value="" style="curved=1;endArrow=classic;html=1;rounded=0;entryX=0.705;entryY=0.01;entryDx=0;entryDy=0;entryPerimeter=0;" edge="1" parent="1" target="cj4dVTk8w0KV40-LwNAP-3">
          <mxGeometry width="50" height="50" relative="1" as="geometry">
            <mxPoint x="400" y="360" as="sourcePoint" />
            <mxPoint x="440" y="360" as="targetPoint" />
            <Array as="points">
              <mxPoint x="390" y="340" />
              <mxPoint x="400" y="340" />
              <mxPoint x="440" y="340" />
            </Array>
          </mxGeometry>
        </mxCell>
        <mxCell id="cj4dVTk8w0KV40-LwNAP-29" value="num" style="text;html=1;align=center;verticalAlign=middle;resizable=0;points=[];autosize=1;strokeColor=none;fillColor=none;rotation=0;fontSize=8;" vertex="1" parent="1">
          <mxGeometry x="390" y="325" width="40" height="20" as="geometry" />
        </mxCell>
        <mxCell id="cj4dVTk8w0KV40-LwNAP-31" value="func" style="text;html=1;align=center;verticalAlign=middle;resizable=0;points=[];autosize=1;strokeColor=none;fillColor=none;rotation=0;fontSize=8;" vertex="1" parent="1">
          <mxGeometry x="385" y="486" width="40" height="20" as="geometry" />
        </mxCell>
        <mxCell id="cj4dVTk8w0KV40-LwNAP-32" style="edgeStyle=orthogonalEdgeStyle;rounded=0;orthogonalLoop=1;jettySize=auto;html=1;entryX=1.004;entryY=0.48;entryDx=0;entryDy=0;entryPerimeter=0;" edge="1" parent="1" source="cj4dVTk8w0KV40-LwNAP-3" target="cj4dVTk8w0KV40-LwNAP-1">
          <mxGeometry relative="1" as="geometry" />
        </mxCell>
        <mxCell id="cj4dVTk8w0KV40-LwNAP-34" value="bracket || func" style="text;html=1;align=center;verticalAlign=middle;resizable=0;points=[];autosize=1;strokeColor=none;fillColor=none;rotation=-180;fontSize=8;" vertex="1" parent="1">
          <mxGeometry x="296" y="380" width="70" height="20" as="geometry" />
        </mxCell>
        <mxCell id="cj4dVTk8w0KV40-LwNAP-37" value="bracket || func" style="text;html=1;align=center;verticalAlign=middle;resizable=0;points=[];autosize=1;strokeColor=none;fillColor=none;rotation=36;fontSize=8;" vertex="1" parent="1">
          <mxGeometry x="296" y="410" width="70" height="20" as="geometry" />
        </mxCell>
        <mxCell id="cj4dVTk8w0KV40-LwNAP-38" value="" style="curved=1;endArrow=classic;html=1;rounded=0;entryX=0.705;entryY=0.01;entryDx=0;entryDy=0;entryPerimeter=0;" edge="1" parent="1">
          <mxGeometry width="50" height="50" relative="1" as="geometry">
            <mxPoint x="399" y="279.6" as="sourcePoint" />
            <mxPoint x="415" y="279.6" as="targetPoint" />
            <Array as="points">
              <mxPoint x="389" y="259.6" />
              <mxPoint x="399" y="259.6" />
              <mxPoint x="439" y="259.6" />
            </Array>
          </mxGeometry>
        </mxCell>
        <mxCell id="cj4dVTk8w0KV40-LwNAP-39" value="num" style="text;html=1;align=center;verticalAlign=middle;resizable=0;points=[];autosize=1;strokeColor=none;fillColor=none;rotation=0;fontSize=8;" vertex="1" parent="1">
          <mxGeometry x="390" y="245" width="40" height="20" as="geometry" />
        </mxCell>
        <mxCell id="cj4dVTk8w0KV40-LwNAP-40" value="error" style="rounded=0;whiteSpace=wrap;html=1;" vertex="1" parent="1">
          <mxGeometry x="520" y="279" width="80" height="40" as="geometry" />
        </mxCell>
        <mxCell id="cj4dVTk8w0KV40-LwNAP-42" value="num(.)" style="text;html=1;align=center;verticalAlign=middle;resizable=0;points=[];autosize=1;strokeColor=none;fillColor=none;rotation=-30;fontSize=8;" vertex="1" parent="1">
          <mxGeometry x="468" y="299" width="50" height="20" as="geometry" />
        </mxCell>
        <mxCell id="cj4dVTk8w0KV40-LwNAP-48" value="op" style="text;html=1;align=center;verticalAlign=middle;resizable=0;points=[];autosize=1;strokeColor=none;fillColor=none;rotation=-90;fontSize=8;" vertex="1" parent="1">
          <mxGeometry x="540" y="335" width="30" height="20" as="geometry" />
        </mxCell>
      </root>
    </mxGraphModel>
  </diagram>
</mxfile>
